<svg xmlns="http://www.w3.org/2000/svg" xmlns:xlink="http://www.w3.org/1999/xlink" version="1.1" id="Layer_23" x="0px" y="0px" width="100px" height="100px" viewBox="0 0 100 100" enable-background="new 0 0 100 100" xml:space="preserve">
<g>
	<path d="M64.033,38.93c6.855-7.1,11.791-20.2,12.363-21.762c0.168-0.413,0.262-0.865,0.262-1.338c0-1.941-1.553-3.519-3.485-3.557   c-0.025-0.001-0.05-0.001-0.075-0.001c-0.076,0-0.154,0.002-0.231,0.008c-0.371,0.023-0.728,0.105-1.06,0.234   c-1.322,0.483-14.63,5.45-21.808,12.38c-7.396-7.141-21.298-12.196-21.895-12.411c-0.394-0.142-0.801-0.211-1.204-0.211   c-0.929,0-1.837,0.363-2.516,1.042c-0.975,0.974-1.298,2.423-0.831,3.72c0.214,0.597,5.27,14.5,12.411,21.896   c-7.14,7.395-12.197,21.297-12.411,21.894c-0.467,1.297-0.144,2.747,0.831,3.721c0.679,0.679,1.588,1.042,2.516,1.042   c0.404,0,0.812-0.069,1.205-0.21c0.397-0.144,7.69-2.796,14.499-6.912v21.868c0,4.077,3.317,7.395,7.395,7.395   c4.077,0,7.394-3.317,7.394-7.395v-1.044c0.001-0.033,0.002-0.066,0.002-0.1V58.465c6.808,4.117,14.103,6.769,14.498,6.912   c0.395,0.141,0.802,0.21,1.205,0.21c0.927,0,1.837-0.363,2.516-1.042c0.975-0.974,1.299-2.424,0.832-3.721   C76.23,60.228,71.175,46.325,64.033,38.93z M52.192,27.726c6.828-6.829,20.906-11.896,20.906-11.896s-5.067,14.078-11.896,20.905   c-1.175,1.174-2.693,1.793-4.23,1.859c-0.171-3.589-3.05-6.469-6.639-6.638C50.399,30.418,51.019,28.899,52.192,27.726z    M53.947,38.93c0,2.181-1.768,3.948-3.949,3.948c-2.181,0-3.949-1.768-3.949-3.948c0-2.181,1.768-3.949,3.949-3.949   C52.18,34.981,53.947,36.749,53.947,38.93z M26.899,15.83c0,0,14.076,5.067,20.905,11.896c1.174,1.174,1.793,2.693,1.859,4.231   c-3.589,0.169-6.469,3.048-6.638,6.638c-1.539-0.066-3.058-0.686-4.231-1.859C31.966,29.908,26.899,15.83,26.899,15.83z    M26.899,62.029c0,0,5.067-14.077,11.895-20.906c1.174-1.174,2.693-1.793,4.231-1.859c0.168,3.59,3.049,6.47,6.638,6.639   c-0.066,1.538-0.685,3.057-1.859,4.231C40.976,56.962,26.899,62.029,26.899,62.029z M53.836,79.189L53.836,79.189l-0.001,1.144   c0,2.119-1.718,3.837-3.836,3.837c-2.119,0-3.838-1.718-3.838-3.837V60.854l0.001-3.16v-1.144c0-2.119,1.717-3.837,3.836-3.837   c2.119,0,3.837,1.718,3.837,3.837V79.189z M52.192,50.134c-1.174-1.174-1.793-2.693-1.859-4.231   c3.589-0.169,6.469-3.049,6.639-6.639c1.537,0.066,3.056,0.686,4.23,1.859c6.828,6.829,11.896,20.906,11.896,20.906   S59.021,56.962,52.192,50.134z"/>
	<path d="M69.156,19.772c0,0-10.658,6.592-11.537,17.031C57.619,36.804,63.552,35.375,69.156,19.772z"/>
	<path d="M30.841,58.087c0,0,10.658-6.592,11.537-17.031C42.378,41.056,36.446,42.484,30.841,58.087z"/>
	<path d="M30.841,19.772c0,0,6.592,10.658,17.031,11.537C47.873,31.309,46.444,25.376,30.841,19.772z"/>
	<path d="M69.156,58.087c0,0-6.593-10.658-17.031-11.537C52.125,46.55,53.554,52.482,69.156,58.087z"/>
</g>
</svg>