<svg xmlns="http://www.w3.org/2000/svg" xmlns:xlink="http://www.w3.org/1999/xlink" version="1.1" x="0px" y="0px" width="100px" height="100px" viewBox="5.0 -10.0 100.0 135.0" enable-background="new 0 0 100 100" xml:space="preserve">
<g id="Captions">
</g>
<g id="Your_Icon">
	<path d="M49.937,1.166c-26.935,0-48.771,21.836-48.771,48.771s21.836,48.771,48.771,48.771s48.771-21.836,48.771-48.771   S76.871,1.166,49.937,1.166z M49.938,95.927c-25.36,0-45.991-20.631-45.991-45.99c0-25.36,20.631-45.99,45.991-45.99   c25.358,0,45.989,20.63,45.989,45.99C95.927,75.296,75.296,95.927,49.938,95.927z"/>
	<path d="M49.938,5.923c-24.271,0-44.015,19.744-44.015,44.014S25.667,93.95,49.938,93.95c24.269,0,44.013-19.744,44.013-44.014   S74.206,5.923,49.938,5.923z M77.279,18.892c6.439,5.678,11.096,13.321,13.032,21.998c-0.634,0.113-1.802,0.362-3.064,0.502   c-1.803-7.904-6.045-14.873-11.899-20.076C76.023,20.375,76.861,19.414,77.279,18.892z M63.533,36.717   c0.783-2.075,4.41-9.496,6.178-13.131c0.095-0.194,0.284-0.529,0.464-0.825c7.08,5.28,12.019,13.263,13.306,22.419   c-0.388,0.018-0.906,0.02-1.168,0.003c-4.033-0.264-12.204-0.789-14.395-1.136c-2.692-0.524-4.252-2.378-4.252-2.378   s-0.004,0.002-0.006,0.005C63.459,41.129,62.774,38.965,63.533,36.717z M64.403,49.937c0,7.977-6.49,14.467-14.467,14.467   S35.47,57.913,35.47,49.937c0-7.978,6.49-14.468,14.467-14.468S64.403,41.959,64.403,49.937z M53.927,31.318   c0,0-2.204,2.708-4.856,2.464c-0.522-0.083-2.543-0.502-4.221-2.175c-1.513-1.621-7.073-8.916-9.55-12.112   c-0.026-0.033-0.037-0.065-0.058-0.098c4.444-2.144,9.429-3.344,14.694-3.344c4.623,0,9.029,0.929,13.045,2.605   C60.802,22.057,53.927,31.318,53.927,31.318z M49.937,8.558c4.405,0,8.646,0.694,12.629,1.97c-0.639,1.216-1.257,2.419-1.448,2.791   c-3.537-1.079-7.291-1.663-11.181-1.663c-4.763,0-9.317,0.876-13.522,2.465c-0.707-1.027-1.271-2.123-1.589-2.702   C39.508,9.578,44.601,8.558,49.937,8.558z M28.413,23.768c2.01,3.326,7.343,14.059,7.343,14.059s1.432,2.641,0.036,4.91   l-0.021,0.035c-0.568,0.571-1.904,1.713-3.878,2.151c-2.181,0.404-10.334,1.172-14.359,1.541c-0.295,0.026-0.914,0.037-1.307,0.025   C17.149,37.357,21.7,29.296,28.413,23.768z M20.67,20.684c0.895,0.894,1.68,1.851,2.058,2.332   c-5.246,5.3-8.945,12.125-10.392,19.751c-1.295-0.169-2.497-0.393-3.063-0.463C10.833,33.942,14.896,26.461,20.67,20.684z    M22.706,81.079c-6.431-5.628-11.1-13.212-13.082-21.825c1.174-0.063,2.44-0.102,3.151-0.119   c1.889,7.652,6.076,14.395,11.791,19.457C23.816,79.607,22.966,80.68,22.706,81.079z M36.254,62.812   c-0.784,2.074-3.872,9.304-5.64,12.939c-0.18,0.368-0.713,1.26-0.842,1.395c-0.004,0.004-0.009,0.007-0.012,0.011   c-7.094-5.268-12.054-13.241-13.358-22.394c3.6,0.034,15.846,1.174,15.846,1.174s3.201,0.265,4.366,2.662l0.065,0.176   C36.867,59.623,36.854,61.032,36.254,62.812z M49.937,91.314c-4.334,0-8.511-0.668-12.437-1.904c0.51-0.976,1.07-2.097,1.423-2.81   c3.489,1.047,7.184,1.616,11.014,1.616c4.079,0,8.007-0.645,11.694-1.825c0.436,1.318,0.857,2.479,1.07,2.907   C58.68,90.603,54.392,91.314,49.937,91.314z M49.937,83.819c-4.587,0-8.958-0.917-12.95-2.568c0.006-0.009,0.01-0.018,0.016-0.027   c1.672-2.8,8.856-13.014,8.856-13.014s1.771-2.416,4.427-2.171l-0.002-0.103c0.657,0.17,2.483,0.769,3.936,2.434   c1.396,1.722,6.088,8.719,8.337,12.078c0.111,0.166,0.288,0.47,0.446,0.757C58.98,82.888,54.567,83.819,49.937,83.819z    M70.19,77.101c-1.852-3.626-6.467-14.304-6.467-14.304s-1.301-2.762,0.249-4.93l0.071-0.13c1.135-2.337,3.811-2.673,3.811-2.673   s12.152-1.478,15.783-1.614C82.643,63.119,77.581,71.582,70.19,77.101z M77.432,80.849c-0.76-1.22-1.462-2.312-1.679-2.65   c5.83-5.328,10.005-12.435,11.667-20.462c0.714,0.013,1.972,0.039,3.139,0.074C88.806,66.9,84.082,74.93,77.432,80.849z"/>
	<path d="M49.937,37.445c-6.888,0-12.49,5.604-12.49,12.491s5.603,12.49,12.49,12.49s12.49-5.603,12.49-12.49   S56.824,37.445,49.937,37.445z M44.978,40.297c1.212,0,2.197,0.986,2.197,2.198c0,1.211-0.985,2.196-2.197,2.196   s-2.198-0.985-2.198-2.196C42.779,41.283,43.766,40.297,44.978,40.297z M41.522,54.393c-1.212,0-2.198-0.984-2.198-2.196   s0.986-2.198,2.198-2.198c1.211,0,2.196,0.986,2.196,2.198S42.733,54.393,41.522,54.393z M49.936,60.928   c-1.212,0-2.198-0.984-2.198-2.196s0.986-2.198,2.198-2.198s2.197,0.986,2.197,2.198S51.147,60.928,49.936,60.928z M49.937,55.298   c-2.962,0-5.362-2.399-5.362-5.361s2.4-5.362,5.362-5.362s5.362,2.4,5.362,5.362S52.898,55.298,49.937,55.298z M53.102,42.968   c0-1.212,0.985-2.198,2.197-2.198c1.213,0,2.197,0.986,2.197,2.198s-0.984,2.197-2.197,2.197   C54.087,45.165,53.102,44.18,53.102,42.968z M60.532,52.87c0,1.212-0.985,2.198-2.197,2.198s-2.197-0.986-2.197-2.198   s0.985-2.197,2.197-2.197S60.532,51.658,60.532,52.87z"/>
</g>
<text x="0.0" y="117.5" font-size="5.0" font-weight="bold" font-family="Helvetica Neue, Helvetica, Arial-Unicode, Arial, Sans-serif" fill="#000000">Created by Veselin Andreev</text><text x="0.0" y="122.5" font-size="5.0" font-weight="bold" font-family="Helvetica Neue, Helvetica, Arial-Unicode, Arial, Sans-serif" fill="#000000">from the Noun Project</text></svg>