<svg xmlns="http://www.w3.org/2000/svg" xmlns:xlink="http://www.w3.org/1999/xlink" version="1.1" id="Ebene_1" x="0px" y="0px" width="100px" height="100px" viewBox="5.0 -10.0 100.0 135.0" enable-background="new 0 0 100 100" xml:space="preserve">
<g>
	<g>
		<path d="M-180.709,27.478h-45.395c-1.204,0-2.18-0.976-2.18-2.181c0-1.204,0.976-2.18,2.18-2.18h45.395    c1.206,0,2.181,0.976,2.181,2.18C-178.528,26.501-179.503,27.478-180.709,27.478z"/>
	</g>
	<g>
		<path d="M-203.406,27.479c-0.964,0-1.844-0.642-2.105-1.617l-2.748-10.269l-25.243-16.382c-1.009-0.656-1.297-2.006-0.642-3.016    c0.657-1.011,2.006-1.299,3.016-0.643l26.647,17.294l3.182,11.888c0.311,1.163-0.379,2.358-1.542,2.669    C-203.03,27.456-203.221,27.479-203.406,27.479z"/>
	</g>
	<g>
		<path d="M-191.926,93.896h-23.232c-1.031,0-1.922-0.723-2.134-1.734l-12.539-59.687c-0.135-0.643,0.027-1.312,0.441-1.823    c0.414-0.509,1.037-0.806,1.693-0.806h48.313c0.658,0,1.279,0.296,1.693,0.806c0.414,0.511,0.576,1.18,0.44,1.823l-12.539,59.687    C-190.002,93.174-190.893,93.896-191.926,93.896z M-213.388,89.535h19.694l11.622-55.327h-42.939L-213.388,89.535z"/>
	</g>
</g>
<g>
	<g>
		<path d="M-57.719,26.561c-5.819,0-10.557-4.739-10.557-10.565c0-5.821,4.737-10.557,10.557-10.557    c5.826,0,10.565,4.736,10.565,10.557C-47.153,21.822-51.893,26.561-57.719,26.561z M-57.719,9.8c-3.414,0-6.195,2.779-6.195,6.196    c0,3.42,2.781,6.204,6.195,6.204c3.422,0,6.206-2.784,6.206-6.204C-51.513,12.579-54.297,9.8-57.719,9.8z"/>
	</g>
	<g>
		<path d="M-94.609,78.387l-0.179-0.004c-0.589-0.037-14.458-0.881-18.642-1.219c-2.396-0.191-8.758-0.701-8.758-6.082    c0-1.285,0.551-5.506,7.6-5.922c3.706-0.215,12.988-0.854,16.113-1.068l6.996-10.117l3.589,2.48l-8.19,11.842l-1.046,0.074    c-0.128,0.008-12.718,0.883-17.205,1.145c-0.582,0.033-3.494,0.27-3.494,1.566c0,0.336,0,1.355,4.743,1.736    c3.984,0.318,17.354,1.139,18.484,1.207c1.076-0.021,2.096-0.633,2.782-1.645l7.427-10.605l3.572,2.5l-7.407,10.58    C-89.713,77.057-92.109,78.387-94.609,78.387z"/>
	</g>
	<g>
		<path d="M-76.018,99.121L-76.018,99.121c-0.648,0-1.287-0.129-1.897-0.387c-1.95-0.828-4.642-3.582-0.824-12.742l6.012-14.844    l-14.726-9.76c-5.965-5.08-4.332-10.031-1.679-14.626l0.079-0.127l9.468-14.069l-4.433-0.966l-11.926,6.332    c-1.045,0.623-2.853,1.332-4.605,1.332c-2.08,0-3.081-1.026-3.49-1.637c-1.725-2.544-0.731-5.461,2.959-8.663l0.098-0.08    l12.197-9.414c1.431-0.963,3.221-1.313,4.928-0.959l14.719,3.199c0.982,0.215,1.884,0.658,2.682,1.318l7.25,4.867    c2.605,1.759,1.488,6.322,0.44,7.883l-11.938,19.12l11.135,7.631c2.893,1.986,3.954,5.75,2.528,8.945l-0.061,0.121l-10.173,19.441    C-70.285,96.563-73.06,99.121-76.018,99.121z M-76.146,94.742c0.057,0.018,0.098,0.02,0.129,0.02c0.18,0,1.834-0.162,4.897-5.781    L-61,69.641c0.533-1.264,0.102-2.734-1.037-3.518l-14.577-9.992l14.188-22.725c0.299-0.446,0.519-1.557,0.465-2.109l-7.23-4.873    c-0.272-0.233-0.568-0.387-0.877-0.455l-14.693-3.194c-0.459-0.094-1.083-0.009-1.535,0.278l-11.973,9.243    c-1.54,1.345-2.068,2.179-2.17,2.603c0.671-0.032,1.652-0.34,2.289-0.728l0.109-0.064l13.392-7.109l12.27,2.674l-13.014,19.334    c-2.37,4.123-2.626,6.13,0.671,8.978l17.377,11.494l-7.357,18.172C-76.836,92.766-76.266,94.48-76.146,94.742z"/>
	</g>
	<g>
		<path d="M-57.492,54.014l-0.152-0.02c-2.436-0.293-4.355-2.283-5.178-4.126l-3.266-7.835l4.025-1.678l3.244,7.785    c0.302,0.678,1.029,1.367,1.59,1.506c1.453-0.031,10.313-0.23,12.843-0.369c2.985-0.162,3.993-0.643,4.278-0.832    c-0.035-0.398-0.402-0.656-3.269-0.865l-11.711-0.992l-6.681-15.143l3.99-1.76l5.637,12.775l9.105,0.773    c2.598,0.189,7.477,0.547,7.287,5.562c-0.158,4.39-6.361,4.724-8.4,4.835c-2.814,0.156-12.768,0.369-13.188,0.379L-57.492,54.014z    "/>
	</g>
</g>
<g>
	<path d="M182.941,97.791c-1.051,0-1.953-0.748-2.145-1.783l-8.857-48.017l-4.24,14.113c-0.277,0.922-1.127,1.555-2.088,1.555   h-25.979v-4.361h24.355l6.371-21.203c0.291-0.964,1.199-1.598,2.207-1.55c1.006,0.055,1.844,0.792,2.025,1.782l8.068,43.749   l10.869-76.531c0.154-1.065,1.057-1.861,2.135-1.874c1.08,0.007,1.998,0.76,2.176,1.821l10.711,64.088l6.189-9.309   c0.404-0.607,1.086-0.973,1.816-0.973h21.275v4.361h-20.109l-8.596,12.932c-0.494,0.748-1.395,1.111-2.271,0.926   c-0.873-0.188-1.547-0.891-1.695-1.771l-9.297-55.621L185.1,95.918c-0.15,1.061-1.047,1.852-2.113,1.873   C182.971,97.791,182.955,97.791,182.941,97.791z"/>
</g>
<g>
	<g>
		<g>
			<path d="M335.508,98.854c-0.146,0-0.293-0.002-0.439-0.004c-0.145,0.002-0.287,0.004-0.432,0.004v-0.012     c-12.047-0.303-20.336-6.9-22.254-17.779c-1.508-8.551,1.68-17.246,7.213-20.367c0-12.72,0.023-33.854,0.148-42.869     c0.168-12.037,9.824-15.217,14.906-15.217c0.109-0.003,13.551,0.044,13.969,16.309c0.191,7.462,0.131,17.302,0.064,27.719     c-0.027,4.654-0.059,9.343-0.063,13.826c6.057,3.221,9.643,12.334,8.111,21.285c-1.791,10.449-9.693,16.791-21.225,17.094V98.854     z M334.654,6.97c-1.061,0.009-10.4,0.391-10.551,10.918c-0.129,9.324-0.148,31.692-0.148,44.194v1.527l-1.434,0.521     c-4.354,1.586-7.084,9.141-5.844,16.172c0.744,4.223,4.025,13.99,18.389,14.186c13.615-0.191,16.678-9.467,17.367-13.477     c1.264-7.389-1.875-15.367-6.721-17.076l-1.455-0.512v-1.545c0-4.918,0.033-10.113,0.064-15.269     c0.066-10.381,0.127-20.187-0.063-27.58C343.957,7.345,335.605,6.974,334.654,6.97z"/>
		</g>
	</g>
	<g>
		<path d="M334.619,89.754c-6.76,0-12.26-5.5-12.26-12.26c0-6.762,5.5-12.262,12.26-12.262c6.764,0,12.264,5.5,12.264,12.262    C346.883,84.254,341.383,89.754,334.619,89.754z M334.619,69.594c-4.354,0-7.898,3.543-7.898,7.9c0,4.355,3.545,7.898,7.898,7.898    c4.357,0,7.902-3.543,7.902-7.898C342.521,73.137,338.977,69.594,334.619,69.594z"/>
	</g>
	<g>
		<path d="M334.619,69.594c-1.203,0-2.178-0.977-2.178-2.182V24.261c0-1.205,0.975-2.181,2.178-2.181    c1.207,0,2.182,0.976,2.182,2.181v43.151C336.801,68.617,335.826,69.594,334.619,69.594z"/>
	</g>
	<g>
		<path d="M311.412,17.959h-7.129c-1.207,0-2.182-0.976-2.182-2.181s0.975-2.181,2.182-2.181h7.129c1.205,0,2.18,0.976,2.18,2.181    S312.617,17.959,311.412,17.959z"/>
	</g>
	<g>
		<path d="M311.412,37.506h-7.129c-1.207,0-2.182-0.976-2.182-2.181c0-1.204,0.975-2.18,2.182-2.18h7.129    c1.205,0,2.18,0.976,2.18,2.18C313.592,36.53,312.617,37.506,311.412,37.506z"/>
	</g>
	<g>
		<path d="M311.412,57.053h-7.129c-1.207,0-2.182-0.975-2.182-2.18s0.975-2.182,2.182-2.182h7.129c1.205,0,2.18,0.977,2.18,2.182    S312.617,57.053,311.412,57.053z"/>
	</g>
</g>
<g>
	<path d="M1906.799,80.686c-0.756,0-1.48-0.33-1.979-0.908l-25.203-29.166c-0.945-1.094-0.824-2.744,0.27-3.691   c1.092-0.943,2.746-0.824,3.691,0.27l22.84,26.435l36.307-60.349c0.744-1.238,2.352-1.636,3.59-0.894   c1.238,0.745,1.639,2.353,0.893,3.591l-38.166,63.443c-0.432,0.721-1.184,1.188-2.018,1.258   C1906.949,80.682,1906.873,80.686,1906.799,80.686z"/>
</g>
<g>
	<g>
		<path d="M1325.246,68.949l-1.594-0.428c-2.928-0.785-6.068-1.305-9.334-1.543c-3.246-0.236-6.48-0.18-9.457,0.166l-1.643,0.193    l-0.627-1.527c-2.041-4.951-2.906-11.209-2.438-17.615c1.057-14.449,8.232-25.344,16.689-25.344c0.234,0,0.469,0.008,0.703,0.026    c8.664,0.634,14.604,12.749,13.516,27.58c-0.467,6.408-2.234,12.47-4.973,17.072L1325.246,68.949z M1310.4,62.473    c1.395,0,2.82,0.053,4.236,0.156c2.932,0.215,5.775,0.639,8.48,1.264c1.957-3.838,3.225-8.654,3.598-13.753    c0.877-11.979-3.467-22.471-9.486-22.913c-0.129-0.01-0.256-0.014-0.385-0.014c-5.205,0-11.406,8.559-12.338,21.299    c-0.373,5.101,0.176,10.05,1.555,14.134C1307.475,62.529,1308.93,62.473,1310.4,62.473z"/>
	</g>
	<g>
		<path d="M1315.242,97.752c-6.33,0-11.555-8.129-11.895-18.506c-0.033-0.988-0.018-1.977,0.041-2.941l0.117-1.984l22.414-0.73    l0.246,1.975c0.123,0.977,0.201,1.961,0.234,2.926c0.344,10.588-4.447,19.047-10.912,19.258L1315.242,97.752z M1307.693,78.547    c0.002,0.188,0.006,0.373,0.014,0.559c0.275,8.418,4.193,14.285,7.535,14.285l0.105-0.002c3.391-0.109,6.973-6.197,6.693-14.754    c-0.008-0.186-0.014-0.369-0.025-0.555L1307.693,78.547z"/>
	</g>
	<g>
		<path d="M1349.229,39.465l-0.844-1.418c-2.74-4.604-4.506-10.666-4.975-17.071c-1.088-14.831,4.852-26.947,13.516-27.582    c0.236-0.017,0.469-0.025,0.701-0.025c8.461,0,15.637,10.896,16.693,25.344c0.467,6.411-0.398,12.667-2.438,17.615l-0.627,1.525    l-1.639-0.19c-2.986-0.347-6.219-0.405-9.459-0.168c-3.27,0.239-6.412,0.758-9.334,1.544L1349.229,39.465z M1357.627-2.271    c-0.127,0-0.254,0.004-0.381,0.014c-6.021,0.441-10.363,10.935-9.486,22.914c0.373,5.099,1.639,9.915,3.598,13.753    c2.703-0.626,5.547-1.05,8.48-1.264c2.91-0.213,5.816-0.208,8.574,0.017c1.379-4.08,1.932-9.03,1.559-14.133    C1369.039,6.288,1362.838-2.271,1357.627-2.271z"/>
	</g>
	<g>
		<path d="M1359.23,68.27l-0.246-0.004c-6.463-0.213-11.254-8.672-10.908-19.259c0.031-0.977,0.109-1.961,0.23-2.926l0.246-1.975    l22.422,0.733l0.115,1.99c0.057,0.982,0.068,1.969,0.039,2.93C1370.787,60.139,1365.561,68.27,1359.23,68.27z M1352.459,48.596    c-0.01,0.186-0.018,0.369-0.023,0.555c-0.281,8.556,3.303,14.644,6.693,14.755l0.102,0.002c3.346,0,7.264-5.867,7.539-14.291    c0.006-0.184,0.01-0.367,0.012-0.553L1352.459,48.596z"/>
	</g>
</g>
<g>
	<g>
		
			<rect x="1199.603" y="9.347" transform="matrix(0.7071 0.7071 -0.7071 0.7071 384.5778 -836.6533)" width="5.231" height="73.106"/>
	</g>
	<g>
		<path d="M1186.814,85.875c-0.668,0-1.34-0.256-1.848-0.766l-21.682-21.68c-1.021-1.023-1.021-2.678,0-3.701    c1.023-1.021,2.68-1.021,3.701,0l21.68,21.68c1.021,1.023,1.021,2.68,0,3.703C1188.154,85.619,1187.486,85.875,1186.814,85.875z"/>
	</g>
	<g>
		<path d="M1174.713,84.605c-0.555,0-1.115-0.213-1.539-0.639l-8.148-8.148c-0.852-0.85-0.852-2.232,0-3.084    c0.854-0.85,2.234-0.852,3.084,0l8.146,8.148c0.852,0.852,0.852,2.23,0,3.084C1175.832,84.393,1175.271,84.605,1174.713,84.605z"/>
	</g>
	<g>
		<path d="M1237.365,34.604c-0.668,0-1.336-0.256-1.848-0.767l-21.68-21.679c-1.021-1.021-1.021-2.678,0-3.701    c1.021-1.021,2.678-1.021,3.701,0.001l21.678,21.679c1.023,1.022,1.023,2.679,0,3.701    C1238.705,34.348,1238.037,34.604,1237.365,34.604z"/>
	</g>
	<g>
		<path d="M1166.139,85.695c-0.668,0-1.338-0.254-1.85-0.766c-1.021-1.02-1.021-2.678,0-3.699l4.068-4.068    c1.021-1.021,2.678-1.021,3.701,0.002c1.021,1.02,1.021,2.678,0,3.699l-4.068,4.068    C1167.479,85.441,1166.809,85.695,1166.139,85.695z"/>
	</g>
	<g>
		<path d="M1236.613,22.164c-0.559,0-1.117-0.213-1.543-0.639l-8.146-8.147c-0.852-0.851-0.852-2.231,0-3.083    c0.852-0.851,2.232-0.852,3.084,0l8.146,8.148c0.852,0.851,0.852,2.232,0,3.083C1237.729,21.951,1237.17,22.164,1236.613,22.164z"/>
	</g>
	<g>
		<path d="M1232.973,17.863c-0.67,0-1.338-0.255-1.85-0.766c-1.021-1.021-1.021-2.679,0-3.701l4.068-4.067    c1.021-1.021,2.678-1.021,3.699,0c1.023,1.021,1.023,2.678,0,3.7l-4.068,4.068C1234.313,17.608,1233.643,17.863,1232.973,17.863z"/>
	</g>
</g>
<g>
	<g>
		<g>
			<path d="M617.678,91.801h-35.309c-0.58,0-1.139-0.23-1.549-0.645c-0.408-0.412-0.637-0.973-0.633-1.553     c0.006-0.355,0.316-35.621,0-56.268c-0.105-6.969,1.48-12.165,4.709-15.442c3.09-3.136,6.949-3.794,9.643-3.794     c2.078,0,3.557,0.386,3.719,0.43c0.951,0.257,1.611,1.119,1.611,2.104c0,10.667,7.635,19.63,18.152,21.311     c1.059,0.168,1.836,1.082,1.836,2.153v49.524C619.857,90.826,618.883,91.801,617.678,91.801z M584.566,87.441h30.932V41.89     c-11.088-2.583-19.125-12.018-19.926-23.387c-1.861-0.156-5.129-0.025-7.568,2.45c-2.379,2.415-3.541,6.559-3.453,12.316     C584.82,50.973,584.629,79.371,584.566,87.441z"/>
		</g>
		<g>
			<path d="M660.922,91.801h-35.309c-1.205,0-2.18-0.975-2.18-2.18V40.097c0-1.072,0.779-1.985,1.836-2.153     c10.518-1.681,18.154-10.644,18.154-21.311c0-1.084,0.795-2.003,1.867-2.159c0.252-0.036,7.607-1.051,12.873,4.221     c3.285,3.289,4.947,8.205,4.938,14.61c-0.025,18.874,0,56.313,0,56.315c0,0.578-0.23,1.133-0.639,1.543     C662.053,91.572,661.5,91.801,660.922,91.801z M627.793,87.441h30.945c-0.004-8.266-0.02-37.994,0.002-54.142     c0.006-5.206-1.225-9.083-3.662-11.522c-2.363-2.365-5.424-2.934-7.379-3.027c-0.898,11.259-8.898,20.576-19.906,23.14V87.441z"/>
		</g>
		<g>
			<path d="M621.848,35.482c-10.971,0-19.896-8.925-19.896-19.896s8.926-19.897,19.896-19.897c10.973,0,19.896,8.926,19.896,19.897     S632.82,35.482,621.848,35.482z M621.848,0.05c-8.566,0-15.535,6.97-15.535,15.536c0,8.565,6.969,15.535,15.535,15.535     c8.568,0,15.537-6.97,15.537-15.535C637.385,7.02,630.416,0.05,621.848,0.05z"/>
		</g>
	</g>
	<g>
		<rect x="619.668" y="-2.131" width="4.361" height="5.359"/>
	</g>
	<g>
		<rect x="634.205" y="13.406" width="5.361" height="4.361"/>
	</g>
	<g>
		<rect x="604.135" y="13.406" width="5.357" height="4.361"/>
	</g>
	<g>
		<path d="M622.072,17.524l2.318-2.492c0,0-9.824-8.59-10.707-7.646C612.852,8.282,622.072,17.524,622.072,17.524"/>
	</g>
	<g>
		<circle cx="622.264" cy="15.469" r="3.027"/>
	</g>
</g>
<g>
	<g>
		<g>
			<path d="M923.824,26.924c1.264-0.672,2.584-1.252,3.953-1.734c-0.049-0.201-0.115-0.393-0.17-0.593     c-1.332,0.661-2.602,1.435-3.787,2.313C923.822,26.915,923.822,26.919,923.824,26.924z"/>
		</g>
		<g>
			<path d="M911.313,60.293c-2.879,3.195-6.596,7.146-7.973,8.729c-0.041,0.041-0.172,0.135-0.287,0.207     c-0.02-0.057-0.178-0.182-0.273-0.281c-7.75-8.922-20.846-23.98-20.846-37.76c0-11.667,9.496-21.161,21.158-21.161     c8.367,0,15.605,4.881,19.039,11.94c1.18-0.777,2.416-1.472,3.703-2.079c-4.154-8.384-12.773-14.093-22.742-14.093     c-14.002,0-25.389,11.248-25.389,25.393c0,14.809,12.699,29.961,21.953,40.609c0.031,0.043,1.518,1.705,3.355,1.705h0.164     c1.836,0,3.322-1.662,3.355-1.705c1.094-1.256,4.148-4.49,6.602-7.158C912.463,63.199,911.852,61.752,911.313,60.293z"/>
		</g>
	</g>
	<g>
		<path d="M937.691,20.82c-14.002,0-25.389,11.247-25.389,25.392c0,14.81,12.697,29.962,21.955,40.611    c0.033,0.041,1.516,1.701,3.355,1.701h0.162c1.834,0,3.322-1.66,3.357-1.701c9.26-10.648,21.955-25.797,21.955-40.611    C963.088,32.067,951.699,20.82,937.691,20.82 M937.939,84.047c-0.043,0.039-0.174,0.135-0.285,0.205    c-0.023-0.057-0.176-0.182-0.273-0.281c-7.752-8.924-20.846-23.98-20.846-37.759c0-11.666,9.494-21.162,21.156-21.162    c11.672,0,21.166,9.496,21.166,21.166C958.857,59.99,945.764,75.047,937.939,84.047"/>
	</g>
</g>
<g>
	<g>
		<path d="M1061.24,47.151c-7.568,0-13.727-6.156-13.727-13.725c0-7.57,6.158-13.729,13.727-13.729    c7.57,0,13.729,6.159,13.729,13.729C1074.969,40.995,1068.811,47.151,1061.24,47.151z M1061.24,24.059    c-5.164,0-9.365,4.203-9.365,9.368c0,5.164,4.201,9.364,9.365,9.364s9.369-4.201,9.369-9.364    C1070.609,28.261,1066.404,24.059,1061.24,24.059z"/>
	</g>
	<g>
		<path d="M1094.182,33.426c0,9.081-3.695,17.316-9.658,23.281l3.326,3.326c6.816-6.816,11.037-16.228,11.037-26.607    c0-10.38-4.221-19.793-11.037-26.607l-3.326,3.325C1090.486,16.108,1094.182,24.344,1094.182,33.426"/>
	</g>
	<g>
		<path d="M1028.301,33.426c0-9.082,3.691-17.318,9.658-23.282l-3.326-3.325c-6.816,6.814-11.041,16.228-11.041,26.607    c0,10.379,4.225,19.791,11.041,26.607l3.326-3.326C1031.992,50.743,1028.301,42.507,1028.301,33.426"/>
	</g>
	<g>
		<path d="M1082.416,33.426c0,5.838-2.375,11.133-6.207,14.965l3.324,3.328c4.688-4.685,7.59-11.158,7.59-18.292    c0-7.137-2.902-13.607-7.59-18.292l-3.324,3.325C1080.041,22.292,1082.416,27.586,1082.416,33.426"/>
	</g>
	<g>
		<path d="M1040.064,33.426c0-5.84,2.375-11.134,6.209-14.967l-3.326-3.325c-4.686,4.686-7.59,11.155-7.59,18.292    c0,7.134,2.904,13.607,7.59,18.292l3.326-3.328C1042.439,44.559,1040.064,39.264,1040.064,33.426"/>
	</g>
	<g>
		<path d="M1061.24,86.482c-1.205,0-2.18-0.977-2.18-2.182V46.975c0-1.203,0.975-2.18,2.18-2.18c1.203,0,2.182,0.977,2.182,2.18    v37.326C1063.422,85.506,1062.443,86.482,1061.24,86.482z"/>
	</g>
</g>
<g>
	<g>
		<path d="M790.805,76.291h-52.021c-1.203,0-2.182-0.979-2.182-2.182V22.087c0-1.205,0.979-2.181,2.182-2.181h52.021    c1.207,0,2.182,0.976,2.182,2.181v52.022C792.986,75.313,792.012,76.291,790.805,76.291z M740.965,71.928h47.66v-47.66h-47.66    V71.928z"/>
	</g>
	<g>
		<path d="M777.361,62.844H752.23c-1.205,0-2.182-0.977-2.182-2.18V35.535c0-1.205,0.977-2.181,2.182-2.181h25.131    c1.203,0,2.18,0.976,2.18,2.181v25.129C779.541,61.867,778.564,62.844,777.361,62.844z M754.408,58.482h20.771V37.716h-20.771    V58.482z"/>
	</g>
	<g>
		<path d="M747.205,14.214c-1.205,0-2.182-0.976-2.182-2.181V1.982c0-1.205,0.977-2.181,2.182-2.181c1.203,0,2.18,0.976,2.18,2.181    v10.051C749.385,13.238,748.408,14.214,747.205,14.214z"/>
	</g>
	<g>
		<path d="M764.795,14.214c-1.205,0-2.18-0.976-2.18-2.181V1.982c0-1.205,0.975-2.181,2.18-2.181c1.203,0,2.182,0.976,2.182,2.181    v10.051C766.977,13.238,765.998,14.214,764.795,14.214z"/>
	</g>
	<g>
		<path d="M782.387,14.214c-1.203,0-2.18-0.976-2.18-2.181V1.982c0-1.205,0.977-2.181,2.18-2.181c1.205,0,2.18,0.976,2.18,2.181    v10.051C784.566,13.238,783.592,14.214,782.387,14.214z"/>
	</g>
	<g>
		<path d="M747.205,97.561c-1.205,0-2.182-0.977-2.182-2.182V85.328c0-1.203,0.977-2.18,2.182-2.18c1.203,0,2.18,0.977,2.18,2.18    v10.051C749.385,96.584,748.408,97.561,747.205,97.561z"/>
	</g>
	<g>
		<path d="M764.795,97.561c-1.205,0-2.18-0.977-2.18-2.182V85.328c0-1.203,0.975-2.18,2.18-2.18c1.203,0,2.182,0.977,2.182,2.18    v10.051C766.977,96.584,765.998,97.561,764.795,97.561z"/>
	</g>
	<g>
		<path d="M782.387,97.561c-1.203,0-2.18-0.977-2.18-2.182V85.328c0-1.203,0.977-2.18,2.18-2.18c1.205,0,2.18,0.977,2.18,2.18    v10.051C784.566,96.584,783.592,97.561,782.387,97.561z"/>
	</g>
	<g>
		<path d="M811.789,32.688H801.74c-1.203,0-2.182-0.976-2.182-2.18c0-1.205,0.979-2.181,2.182-2.181h10.049    c1.207,0,2.182,0.976,2.182,2.181C813.971,31.712,812.996,32.688,811.789,32.688z"/>
	</g>
	<g>
		<path d="M811.789,50.28H801.74c-1.203,0-2.182-0.977-2.182-2.182c0-1.203,0.979-2.18,2.182-2.18h10.049    c1.207,0,2.182,0.977,2.182,2.18C813.971,49.303,812.996,50.28,811.789,50.28z"/>
	</g>
	<g>
		<path d="M811.789,67.869H801.74c-1.203,0-2.182-0.977-2.182-2.182c0-1.203,0.979-2.18,2.182-2.18h10.049    c1.207,0,2.182,0.977,2.182,2.18C813.971,66.893,812.996,67.869,811.789,67.869z"/>
	</g>
	<g>
		<path d="M728.23,32.688h-10.049c-1.205,0-2.182-0.976-2.182-2.18c0-1.205,0.977-2.181,2.182-2.181h10.049    c1.205,0,2.182,0.976,2.182,2.181C730.412,31.712,729.436,32.688,728.23,32.688z"/>
	</g>
	<g>
		<path d="M728.23,50.28h-10.049c-1.205,0-2.182-0.977-2.182-2.182c0-1.203,0.977-2.18,2.182-2.18h10.049    c1.205,0,2.182,0.977,2.182,2.18C730.412,49.303,729.436,50.28,728.23,50.28z"/>
	</g>
	<g>
		<path d="M728.23,67.869h-10.049c-1.205,0-2.182-0.977-2.182-2.182c0-1.203,0.977-2.18,2.182-2.18h10.049    c1.205,0,2.182,0.977,2.182,2.18C730.412,66.893,729.436,67.869,728.23,67.869z"/>
	</g>
</g>
<g>
	<g>
		<g>
			<path d="M510.568,87.863l-11.965-6.898c-1.045-0.602-1.402-1.936-0.801-2.979c0.602-1.045,1.936-1.4,2.979-0.801l8.322,4.799     c3.803-6.59,5.803-14.063,5.803-21.736c0-24.02-19.541-43.561-43.561-43.561c-14.996,0-28.754,7.568-36.799,20.246     c-4.422,6.964-6.76,15.025-6.76,23.314c0,7.668,1.998,15.143,5.799,21.736l8.713-4.264c1.084-0.529,2.389-0.082,2.916,1     c0.531,1.082,0.082,2.387-0.998,2.916l-12.252,5.996l-1.047-1.641c-4.9-7.691-7.494-16.594-7.494-25.744     c0-9.117,2.574-17.988,7.441-25.653c8.85-13.944,23.984-22.269,40.48-22.269c26.426,0,47.922,21.498,47.922,47.922     c0,9.209-2.621,18.154-7.576,25.867L510.568,87.863z"/>
		</g>
		<g>
			<path d="M500.199,43.901c-0.771,0-1.523-0.412-1.918-1.141c-0.574-1.058-0.184-2.381,0.877-2.956l9.145-4.964     c1.059-0.574,2.383-0.184,2.959,0.875c0.572,1.059,0.18,2.382-0.877,2.957l-9.148,4.964     C500.906,43.816,500.551,43.901,500.199,43.901z"/>
		</g>
		<g>
			<path d="M471.346,28.738c-1.205,0-2.18-0.976-2.18-2.18V14.506c0-1.204,0.975-2.18,2.18-2.18s2.182,0.976,2.182,2.18v12.051     C473.527,27.762,472.551,28.738,471.346,28.738z"/>
		</g>
		<g>
			<path d="M442.299,43.901c-0.393,0-0.789-0.105-1.146-0.328l-9.598-5.956c-1.021-0.634-1.338-1.979-0.701-3.001     c0.635-1.024,1.979-1.339,3.002-0.704l9.596,5.956c1.021,0.635,1.34,1.98,0.703,3.003     C443.74,43.535,443.027,43.901,442.299,43.901z"/>
		</g>
	</g>
	<g>
		<path d="M486.766,89.135h-29.248c-1.203,0-2.182-0.977-2.182-2.182s0.979-2.18,2.182-2.18h29.248c1.205,0,2.18,0.975,2.18,2.18    S487.971,89.135,486.766,89.135z"/>
	</g>
	<path d="M471.344,49.772c-4.711,0-8.531,3.82-8.531,8.531c0,4.713,3.82,8.533,8.531,8.533c4.713,0,8.533-3.82,8.533-8.533   C479.877,53.592,476.057,49.772,471.344,49.772z M471.344,62.727c-2.441,0-4.422-1.979-4.422-4.424c0-2.441,1.98-4.424,4.422-4.424   c2.447,0,4.426,1.982,4.426,4.424C475.77,60.748,473.791,62.727,471.344,62.727z"/>
	<g>
		<path d="M469.537,54.273c-1.262,0.014-2.018,0.029-2.018,0.029l0.092,1.646C468.074,55.217,468.74,54.633,469.537,54.273z"/>
		<path d="M473.102,54.246c1.568,0.682,2.668,2.24,2.668,4.059c0,2.445-1.98,4.424-4.426,4.424c-1.402,0-2.637-0.666-3.447-1.684    l0.16,2.889c0,0,36.846-3.219,36.643-6.873C504.555,54.447,483.441,54.207,473.102,54.246z"/>
	</g>
</g>
<g>
	<g>
		<path d="M57.154,22.842c-0.002,0-0.002,0-0.002,0c-4.431,0-8.421-2.8-9.932-6.968c-1.984-5.473,0.857-11.539,6.327-13.523    c1.165-0.42,2.375-0.635,3.603-0.635c4.431,0,8.421,2.798,9.929,6.961c1.985,5.476-0.856,11.547-6.331,13.532    C59.588,22.629,58.378,22.842,57.154,22.842z M57.15,6.076c-0.719,0-1.43,0.125-2.114,0.375c-3.214,1.165-4.879,4.725-3.714,7.937    c0.887,2.448,3.23,4.094,5.83,4.094h0.002c0.715,0,1.426-0.125,2.107-0.373c3.217-1.165,4.884-4.729,3.719-7.945    C62.094,7.718,59.752,6.076,57.15,6.076z"/>
	</g>
	<g>
		<path d="M32.394,99.131c-0.714,0-1.426-0.195-2.103-0.58c-5.272-3.002-2.69-7.693-1.304-10.213    c0.391-0.707,0.757-1.375,0.999-1.973c1.933-4.781,4.72-13.234,4.98-14.033l3.381-12.846l4.217,1.109l-3.432,13.033    c-0.123,0.375-3.027,9.238-5.102,14.373c-0.342,0.836-0.788,1.652-1.224,2.441c-1.868,3.393-1.549,3.639-0.409,4.289    c0.964-0.57,2.957-4.137,3.934-5.887c4.198-7.516,4.668-8.379,4.686-8.412l0.428-0.74c1.426-2.717,1.856-3.707,2.814-6.314    l1.527-4.033l4.076,1.545l-1.518,4.012c-1.109,3.02-1.592,4.084-3.439,7.57l-0.393,0.744l-0.064,0.023    c-0.521,0.941-1.695,3.055-4.31,7.734c-2.521,4.516-4.195,7.318-6.672,8.008C33.114,99.08,32.754,99.131,32.394,99.131z"/>
	</g>
	<g>
		<path d="M60.291,98.896c-0.002,0-0.002,0-0.002,0c-1.92,0-4.463-1.295-8.777-10.9l-0.082-0.209l-3.053-9.268l-4.699-13.834    c-6.37-2.832-6.467-7.801-5.583-12.779l2.735-13.162l-1.76,0.929l-7.117,8.161c-0.162,0.205-0.354,0.461-0.563,0.742    c-1.836,2.447-3.396,4.322-5.375,4.322c-0.622,0-1.213-0.193-1.713-0.559c-4.102-2.972,0.703-11.716,0.91-12.087l0.054-0.092    l7.828-12.559c0.992-1.363,3.462-2.877,5.186-3.201l10.08-2.862c1.012-0.135,1.999-0.019,2.966,0.326l8.475,2.103    c3.047,0.767,3.553,5.437,3.101,7.261l-5.146,24.088l-0.764,3.246c0.039,3.662,0.049,3.826,0.4,7.469l5.402,15.684    c1.488,5.266,2.962,14.73-0.973,16.803C61.344,98.77,60.828,98.896,60.291,98.896z M55.537,86.313    c2.077,4.609,3.488,6.67,4.275,7.58c0.304-1.727,0.34-5.475-1.197-10.934l-5.514-15.994l-0.025-0.258    c-0.399-4.129-0.404-4.207-0.447-8.363l-0.002-0.266l0.873-3.715l5.154-24.116c0.127-0.519-0.046-1.639-0.283-2.14l-8.46-2.115    c-0.289-0.11-0.567-0.155-0.85-0.143l-9.983,2.838c-0.557,0.085-2.025,0.962-2.424,1.44l-7.656,12.292    c-0.757,1.372-1.363,3.007-1.699,4.333c0.236-0.305,0.448-0.586,0.6-0.791c0.256-0.34,0.485-0.646,0.68-0.889l0.058-0.068    l7.679-8.81l10.67-5.622l-4.607,22.16c-0.84,4.721-0.393,6.697,3.807,8.268l0.969,0.363l5.36,15.771L55.537,86.313z"/>
	</g>
	<g>
		<path d="M82.617,57.943c-1.711,0-3.943-0.682-6.754-1.615c-0.439-0.146-0.852-0.283-1.213-0.398    c-3.535-1.117-9.795-3.967-10.059-4.088l-0.513-0.232l-0.337-0.453c-0.664-0.898-0.844-1.136-0.904-1.21    c-0.063-0.07-0.063-0.07-1.023-1.398l-0.149-0.207l-0.145-0.301l-3.776-9.068l4.024-1.676l3.678,8.833    c0.507,0.699,0.68,0.939,0.749,1.033c0.075,0.09,0.211,0.268,0.714,0.945c1.56,0.697,6.325,2.803,9.056,3.666    c0.379,0.119,0.811,0.264,1.275,0.418c0.801,0.266,2.225,0.74,3.453,1.063c-1.795-1.674-5.445-3.57-7.281-4.523    c-1.357-0.705-2.531-1.314-3.401-1.881l-0.438-0.287l-4.404-7.648l-6.844-11.096l3.712-2.29l6.877,11.152l3.901,6.777    c0.689,0.406,1.627,0.893,2.609,1.403c4.777,2.48,10.723,5.57,10.678,10.103c-0.01,0.953-0.449,1.809-1.207,2.35    C84.273,57.756,83.52,57.943,82.617,57.943z"/>
	</g>
</g>
<g>
	<g>
		<path d="M1623.783,93.504c-24.344,0-44.148-19.805-44.148-44.15c0-24.342,19.805-44.146,44.148-44.146    c24.342,0,44.148,19.804,44.148,44.146C1667.932,70.193,1649.051,93.504,1623.783,93.504z M1623.783,9.568    c-21.939,0-39.787,17.848-39.787,39.786c0,21.939,17.848,39.789,39.787,39.789c22.408,0,39.787-21.389,39.787-39.789    C1663.57,27.416,1645.723,9.568,1623.783,9.568z"/>
	</g>
	<g>
		<path d="M1641.648,63.906c-0.43,0-0.863-0.127-1.24-0.389l-17.865-12.371c-0.59-0.406-0.941-1.076-0.941-1.792V24.581    c0-1.204,0.979-2.181,2.182-2.181s2.18,0.977,2.18,2.181v23.633l16.928,11.72c0.99,0.686,1.236,2.043,0.553,3.035    C1643.018,63.578,1642.338,63.906,1641.648,63.906z"/>
	</g>
	<g>
		<path d="M1665.752,51.535h-6.648c-1.205,0-2.182-0.976-2.182-2.181c0-1.203,0.977-2.182,2.182-2.182h6.648    c1.203,0,2.18,0.979,2.18,2.182C1667.932,50.559,1666.955,51.535,1665.752,51.535z"/>
	</g>
	<g>
		<path d="M1588.625,51.535h-6.811c-1.205,0-2.18-0.976-2.18-2.181c0-1.203,0.975-2.182,2.18-2.182h6.811    c1.203,0,2.18,0.979,2.18,2.182C1590.805,50.559,1589.828,51.535,1588.625,51.535z"/>
	</g>
	<g>
		<path d="M1623.783,93.504c-1.203,0-2.182-0.977-2.182-2.182v-6.914c0-1.203,0.979-2.18,2.182-2.18s2.18,0.977,2.18,2.18v6.914    C1625.963,92.527,1624.986,93.504,1623.783,93.504z"/>
	</g>
	<g>
		<path d="M1623.783,16.442c-1.203,0-2.182-0.976-2.182-2.18V7.388c0-1.204,0.979-2.18,2.182-2.18s2.18,0.976,2.18,2.18v6.875    C1625.963,15.466,1624.986,16.442,1623.783,16.442z"/>
	</g>
</g>
<g id="Expanded_1_">
	<g>
		<g>
			<g>
				<path d="M1740.697,60.51c-0.658,0-1.287-0.287-1.717-0.785l-14.883-17.167c-0.822-0.951-0.719-2.385,0.229-3.207      c0.949-0.818,2.385-0.72,3.209,0.228l12.896,14.885l10.67-16.552c0.682-1.054,2.09-1.354,3.145-0.677      c1.057,0.68,1.357,2.087,0.678,3.141l-12.318,19.092c-0.389,0.602-1.037,0.986-1.754,1.035      C1740.801,60.506,1740.748,60.51,1740.697,60.51z"/>
			</g>
		</g>
		<g>
			<g>
				<path d="M1829.336,66.137c-0.734,0-1.455-0.35-1.891-1.004l-10.971-16.349l-12.629,15.113c-0.801,0.965-2.234,1.09-3.197,0.289      c-0.965-0.805-1.092-2.238-0.291-3.201l14.57-17.439c0.457-0.551,1.131-0.875,1.859-0.816c0.715,0.04,1.371,0.412,1.77,1.004      l12.658,18.867c0.701,1.041,0.424,2.453-0.615,3.152C1830.209,66.014,1829.773,66.137,1829.336,66.137z"/>
			</g>
		</g>
		<g>
			<g>
				<path d="M1778.189,90.268c-10.609,0-20.869-4.135-28.65-11.816c-0.898-0.881-0.902-2.316-0.023-3.213      c0.879-0.891,2.318-0.902,3.213-0.02c8.982,8.854,21.666,12.406,33.92,9.514c17.922-4.234,29.861-21.205,27.766-39.47      c-0.145-1.245,0.754-2.375,1.998-2.519c1.26-0.152,2.377,0.754,2.516,2.001c2.355,20.554-11.072,39.644-31.23,44.414      C1784.533,89.902,1781.348,90.268,1778.189,90.268z"/>
			</g>
		</g>
		<g>
			<g>
				<path d="M1740.695,60.51c-1.031,0-1.961-0.703-2.209-1.754c-2.518-10.63-0.74-21.606,5-30.897      c5.736-9.297,14.756-15.8,25.387-18.316c14.705-3.466,30.043,1.4,40.061,12.713c0.832,0.942,0.742,2.376-0.193,3.208      c-0.939,0.825-2.375,0.741-3.209-0.194c-8.906-10.06-22.551-14.394-35.611-11.303c-9.449,2.232-17.467,8.014-22.566,16.275      c-5.102,8.261-6.684,18.014-4.445,27.465c0.289,1.225-0.469,2.451-1.689,2.742C1741.041,60.488,1740.867,60.51,1740.695,60.51z"/>
			</g>
		</g>
	</g>
</g>
<g>
	<g>
		<path d="M1480.299,82.748c-17.139,0-35.584-3.684-35.584-11.771v-0.947l6.756-6.313V40.351c0-18.021,11.977-31.1,28.479-31.1    c16.504,0,28.48,13.079,28.48,31.1v23.301l7.455,6.313v1.012C1515.885,79.064,1497.439,82.748,1480.299,82.748z M1449.33,71.688    c1.746,2.625,12.537,6.699,30.969,6.699c18.307,0,29.074-4.018,30.934-6.646l-7.162-6.064V40.351    c0-15.494-10.146-26.739-24.121-26.739s-24.117,11.245-24.117,26.739v25.26L1449.33,71.688z"/>
	</g>
	<g>
		<path d="M1488.506,84.75c0,3.621-3.83,6.561-8.557,6.561c-4.725,0-8.553-2.939-8.553-6.561H1488.506z"/>
		<path d="M1479.949,91.746c-4.957,0-8.988-3.139-8.988-6.996v-0.438h17.98v0.438C1488.941,88.607,1484.908,91.746,1479.949,91.746z     M1471.852,85.186c0.297,3.174,3.816,5.689,8.098,5.689c4.283,0,7.803-2.516,8.1-5.689H1471.852z"/>
	</g>
	<g>
		<path d="M1483.404,11.432V7.979c0-1.707-1.547-3.093-3.455-3.093c-1.906,0-3.451,1.386-3.451,3.093v3.453"/>
		<path d="M1483.84,11.432h-0.873V7.979c0-1.465-1.352-2.656-3.018-2.656c-1.66,0-3.014,1.191-3.014,2.656v3.453h-0.873V7.979    c0-1.945,1.744-3.529,3.887-3.529c2.146,0,3.891,1.584,3.891,3.529V11.432z"/>
	</g>
</g>
<text x="0.0" y="117.5" font-size="5.0" font-weight="bold" font-family="Helvetica Neue, Helvetica, Arial-Unicode, Arial, Sans-serif" fill="#000000">Created by Tobias Strohbach</text><text x="0.0" y="122.5" font-size="5.0" font-weight="bold" font-family="Helvetica Neue, Helvetica, Arial-Unicode, Arial, Sans-serif" fill="#000000">from the Noun Project</text></svg>